<svg id="Line" xmlns="http://www.w3.org/2000/svg" viewBox="0 0 64 64"><title>1</title><path d="M49.98145,28.335A9.87267,9.87267,0,0,0,40.123,18.36719H23.877a9.86944,9.86944,0,0,0-9.8584,9.8584,4.41954,4.41954,0,0,0,2.124,3.87792,4.39234,4.39234,0,0,0-1.22461,3.0459V51.02393a1.00019,1.00019,0,0,0,2-.00007V35.14941a2.41021,2.41021,0,0,1,2.40723-2.40722,1.00019,1.00019,0,0,0-.00006-2h-.89936a2.41647,2.41647,0,0,1-2.40722-2.51661A7.86745,7.86745,0,0,1,23.877,20.36719h16.2461a7.86747,7.86747,0,0,1,7.8584,7.8584,2.41653,2.41653,0,0,1-2.40724,2.51659H44.6748a1,1,0,0,0,0,2A2.41021,2.41021,0,0,1,47.082,35.14941V55.59277A2.41021,2.41021,0,0,1,44.6748,58H19.3252A2.41021,2.41021,0,0,1,16.918,55.59277a1,1,0,0,0-2,0A4.41219,4.41219,0,0,0,19.3252,60H44.6748A4.4125,4.4125,0,0,0,49.082,55.59277V35.14941a4.39447,4.39447,0,0,0-1.22461-3.04589A4.40938,4.40938,0,0,0,49.98145,28.335Z"/><path d="M34.0957,30.06885l-11.21,11.21a1.00009,1.00009,0,0,0,1.41411,1.414L35.50977,31.48291A1.00009,1.00009,0,0,0,34.0957,30.06885Z"/><path d="M28.49072,48.29785a.99964.99964,0,0,0,1.41407,0l11.20947-11.21a.99989.99989,0,0,0-1.41406-1.41406l-11.20948,11.21A.99964.99964,0,0,0,28.49072,48.29785Z"/><path d="M30.3335,15.9082a.99674.99674,0,0,0,.707-.293c.918-1.054,2.99216-2.41589,2.87059-4.00974a2.73141,2.73141,0,0,0-.80565-1.94533c-.25069-.30586-1.10008-.89751-1.04639-1.35738a.74612.74612,0,0,1,.22022-.5313L34.34375,5.707a1.00008,1.00008,0,0,0-1.4141-1.414L30.86523,6.35693a2.76441,2.76441,0,0,0,0,3.8916c.42736.48,1.52339,1.16932.82561,1.88868l-2.06442,2.064A1.0067,1.0067,0,0,0,30.3335,15.9082Z"/><path d="M22.97754,15.9082a.99672.99672,0,0,0,.707-.293l2.064-2.064a2.7638,2.7638,0,0,0,0-3.89111c-.42837-.48052-1.52159-1.16875-.82561-1.88868L26.9873,5.707a1.00008,1.00008,0,0,0-1.4141-1.414l-2.06441,2.0644a2.75462,2.75462,0,0,0,0,3.89112c.42763.48031,1.52334,1.1691.82565,1.88867l-2.06393,2.064A1.00667,1.00667,0,0,0,22.97754,15.9082Z"/><path d="M37.38965,15.9082a.99672.99672,0,0,0,.707-.293l2.06445-2.064a2.75607,2.75607,0,0,0,0-3.8916c-.42937-.48038-1.52227-1.16748-.82613-1.88819L41.39941,5.707a1.00008,1.00008,0,0,0-1.4141-1.414L37.9209,6.35742a2.75607,2.75607,0,0,0,0,3.8916c.42973.48113,1.52217,1.16681.82614,1.88819l-2.06442,2.064A1.0067,1.0067,0,0,0,37.38965,15.9082Z"/></svg>